<svg width="20" height="20" viewBox="0 0 20 20" fill="none" xmlns="http://www.w3.org/2000/svg">
<path d="M9.22318 17.1155L9.22174 17.1142C6.62662 14.7609 4.55384 12.8788 3.1178 11.1231C1.69324 9.38142 1 7.88647 1 6.32495C1 3.79724 2.97228 1.82495 5.5 1.82495C6.93721 1.82495 8.33224 2.49889 9.23865 3.56329L10 4.45735L10.7614 3.56329C11.6678 2.49889 13.0628 1.82495 14.5 1.82495C17.0277 1.82495 19 3.79724 19 6.32495C19 7.88648 18.3068 9.38148 16.882 11.1246C15.4459 12.8815 13.3734 14.7659 10.7786 17.1239C10.7782 17.1242 10.7778 17.1246 10.7775 17.1249L10.0026 17.825L9.22318 17.1155Z" fill="white" stroke="#202020" stroke-width="2"/>
</svg>
